HIERARCHY
ROOT hip
{
OFFSET -0 97.33 -0.85
CHANNELS 6 Xposition Yposition Zposition Zrotation Xrotation Yrotation
JOINT abdomen
{
OFFSET 0 7.23 0
CHANNELS 6 Xposition Yposition Zposition Zrotation Xrotation Yrotation
JOINT chest
{
OFFSET 0 16.54 0
CHANNELS 6 Xposition Yposition Zposition Zrotation Xrotation Yrotation
JOINT neck
{
OFFSET 0 34.21 0
CHANNELS 6 Xposition Yposition Zposition Zrotation Xrotation Yrotation
JOINT head
{
OFFSET 0 6.29 0
CHANNELS 6 Xposition Yposition Zposition Zrotation Xrotation Yrotation
End Site
{
OFFSET 0 21.21 0
}
}
}
JOINT lCollar
{
OFFSET 4.06 26.61 -1.12
CHANNELS 6 Xposition Yposition Zposition Zrotation Xrotation Yrotation
JOINT lShldr
{
OFFSET 14.17 0 0
CHANNELS 6 Xposition Yposition Zposition Zrotation Xrotation Yrotation
JOINT lForeArm
{
OFFSET 26.12 0 0
CHANNELS 6 Xposition Yposition Zposition Zrotation Xrotation Yrotation
JOINT lHand
{
OFFSET 27.71 0 0
CHANNELS 6 Xposition Yposition Zposition Zrotation Xrotation Yrotation
JOINT lThumb1
{
OFFSET 2.29 -0.46 1.83
CHANNELS 6 Xposition Yposition Zposition Zrotation Xrotation Yrotation
JOINT lThumb2
{
OFFSET 5.29 0 0
CHANNELS 6 Xposition Yposition Zposition Zrotation Xrotation Yrotation
JOINT lThumb3
{
OFFSET 3.01 0 0
CHANNELS 6 Xposition Yposition Zposition Zrotation Xrotation Yrotation
End Site
{
OFFSET 2.62 0 0
}
}
}
}
JOINT lIndex1
{
OFFSET 9.37 0.29 2.59
CHANNELS 6 Xposition Yposition Zposition Zrotation Xrotation Yrotation
JOINT lIndex2
{
OFFSET 4.34 0 0
CHANNELS 6 Xposition Yposition Zposition Zrotation Xrotation Yrotation
JOINT lIndex3
{
OFFSET 2.16 0 0
CHANNELS 6 Xposition Yposition Zposition Zrotation Xrotation Yrotation
End Site
{
OFFSET 2.20 0 0
}
}
}
}
JOINT lMid1
{
OFFSET 9.47 0.83 0.29
CHANNELS 6 Xposition Yposition Zposition Zrotation Xrotation Yrotation
JOINT lMid2
{
OFFSET 4.77 0 0
CHANNELS 6 Xposition Yposition Zposition Zrotation Xrotation Yrotation
JOINT lMid3
{
OFFSET 2.87 0 0
CHANNELS 6 Xposition Yposition Zposition Zrotation Xrotation Yrotation
End Site
{
OFFSET 2.09 0 0
}
}
}
}
JOINT lRing1
{
OFFSET 8.65 1.01 -1.70
CHANNELS 6 Xposition Yposition Zposition Zrotation Xrotation Yrotation
JOINT lRing2
{
OFFSET 4.54 0 0
CHANNELS 6 Xposition Yposition Zposition Zrotation Xrotation Yrotation
JOINT lRing3
{
OFFSET 2.50 0 0
CHANNELS 6 Xposition Yposition Zposition Zrotation Xrotation Yrotation
End Site
{
OFFSET 2.20 0 0
}
}
}
}
JOINT lPinky1
{
OFFSET 7.69 0.66 -3.90
CHANNELS 6 Xposition Yposition Zposition Zrotation Xrotation Yrotation
JOINT lPinky2
{
OFFSET 3.21 0 0
CHANNELS 6 Xposition Yposition Zposition Zrotation Xrotation Yrotation
JOINT lPinky3
{
OFFSET 1.92 0 0
CHANNELS 6 Xposition Yposition Zposition Zrotation Xrotation Yrotation
End Site
{
OFFSET 1.78 0 0
}
}
}
}
}
}
}
}
JOINT rCollar
{
OFFSET -4.06 26.61 -1.12
CHANNELS 6 Xposition Yposition Zposition Zrotation Xrotation Yrotation
JOINT rShldr
{
OFFSET -14.17 0 0
CHANNELS 6 Xposition Yposition Zposition Zrotation Xrotation Yrotation
JOINT rForeArm
{
OFFSET -26.12 0 0
CHANNELS 6 Xposition Yposition Zposition Zrotation Xrotation Yrotation
JOINT rHand
{
OFFSET -27.71 0 0
CHANNELS 6 Xposition Yposition Zposition Zrotation Xrotation Yrotation
JOINT rThumb1
{
OFFSET -2.29 -0.46 1.83
CHANNELS 6 Xposition Yposition Zposition Zrotation Xrotation Yrotation
JOINT rThumb2
{
OFFSET -5.29 0 0
CHANNELS 6 Xposition Yposition Zposition Zrotation Xrotation Yrotation
JOINT rThumb3
{
OFFSET -3.01 0 0
CHANNELS 6 Xposition Yposition Zposition Zrotation Xrotation Yrotation
End Site
{
OFFSET -2.62 0 0
}
}
}
}
JOINT rIndex1
{
OFFSET -9.37 0.29 2.59
CHANNELS 6 Xposition Yposition Zposition Zrotation Xrotation Yrotation
JOINT rIndex2
{
OFFSET -4.34 0 0
CHANNELS 6 Xposition Yposition Zposition Zrotation Xrotation Yrotation
JOINT rIndex3
{
OFFSET -2.16 0 0
CHANNELS 6 Xposition Yposition Zposition Zrotation Xrotation Yrotation
End Site
{
OFFSET -2.20 0 0
}
}
}
}
JOINT rMid1
{
OFFSET -9.47 0.83 0.29
CHANNELS 6 Xposition Yposition Zposition Zrotation Xrotation Yrotation
JOINT rMid2
{
OFFSET -4.77 0 0
CHANNELS 6 Xposition Yposition Zposition Zrotation Xrotation Yrotation
JOINT rMid3
{
OFFSET -2.87 0 0
CHANNELS 6 Xposition Yposition Zposition Zrotation Xrotation Yrotation
End Site
{
OFFSET -2.09 0 0
}
}
}
}
JOINT rRing1
{
OFFSET -8.65 1.01 -1.70
CHANNELS 6 Xposition Yposition Zposition Zrotation Xrotation Yrotation
JOINT rRing2
{
OFFSET -4.54 0 0
CHANNELS 6 Xposition Yposition Zposition Zrotation Xrotation Yrotation
JOINT rRing3
{
OFFSET -2.50 0 0
CHANNELS 6 Xposition Yposition Zposition Zrotation Xrotation Yrotation
End Site
{
OFFSET -2.20 0 0
}
}
}
}
JOINT rPinky1
{
OFFSET -7.69 0.66 -3.90
CHANNELS 6 Xposition Yposition Zposition Zrotation Xrotation Yrotation
JOINT rPinky2
{
OFFSET -3.21 0 0
CHANNELS 6 Xposition Yposition Zposition Zrotation Xrotation Yrotation
JOINT rPinky3
{
OFFSET -1.92 0 0
CHANNELS 6 Xposition Yposition Zposition Zrotation Xrotation Yrotation
End Site
{
OFFSET -1.78 0 0
}
}
}
}
}
}
}
}
}
}
JOINT lThigh
{
OFFSET 8.73 -0 0
CHANNELS 6 Xposition Yposition Zposition Zrotation Xrotation Yrotation
JOINT lShin
{
OFFSET 0 -46.66 0
CHANNELS 6 Xposition Yposition Zposition Zrotation Xrotation Yrotation
JOINT lFoot
{
OFFSET 0 -40.14 0
CHANNELS 6 Xposition Yposition Zposition Zrotation Xrotation Yrotation
JOINT lToes
{
OFFSET 0 -8.88 14.22
CHANNELS 6 Xposition Yposition Zposition Zrotation Xrotation Yrotation
End Site
{
OFFSET 0 0 6.29
}
}
}
}
}
JOINT rThigh
{
OFFSET -8.73 0 -0
CHANNELS 6 Xposition Yposition Zposition Zrotation Xrotation Yrotation
JOINT rShin
{
OFFSET 0 -46.66 0
CHANNELS 6 Xposition Yposition Zposition Zrotation Xrotation Yrotation
JOINT rFoot
{
OFFSET 0 -40.14 0
CHANNELS 6 Xposition Yposition Zposition Zrotation Xrotation Yrotation
JOINT rToes
{
OFFSET 0 -8.88 14.22
CHANNELS 6 Xposition Yposition Zposition Zrotation Xrotation Yrotation
End Site
{
OFFSET 0 0 6.29
}
}
}
}
}
}
MOTION
Frames: 4
Frame Time: 0.03
-0 97.33 -0.85 -0.03 6.27 -6.44 0 7.23 0 0.97 -2.72 1.01 0 16.54 0 1.89 -3.57 1.94 0 34.21 0 0 25.73 -0 0 6.29 0 -2.31 -19.12 1.57 4.06 26.61 -1.12 -0.98 -5.87 4.81 14.17 0 0 -83.28 38.13 7.63 26.12 0 0 -0.29 0.23 -19.28 27.71 0 0 3.48 -23.99 12.45 2.29 -0.46 1.83 51.04 66.36 -67.94 5.29 0 0 -6.83 2.66 2.96 3.01 0 0 12.48 -0 0 9.37 0.29 2.59 -13.22 -0.85 -0.85 4.34 0 0 -26.23 -0.61 3.49 2.16 0 0 -2.16 0 0 9.47 0.83 0.29 -17.65 -4.14 -0.22 4.77 0 0 -20.91 -0.36 1.90 2.87 0 0 3.95 0.07 0.39 8.65 1.01 -1.70 -25.61 -0.59 1.37 4.54 0 0 -27.83 0.58 -1.80 2.50 0 0 6.76 0 0 7.69 0.66 -3.90 -20.28 -13.01 2.43 3.21 0 0 -39.05 0.30 1.95 1.92 0 0 4.41 0 0 -4.06 26.61 -1.12 3.08 -6.11 -4.15 -14.17 0 0 77.35 39.53 -7.83 -26.12 0 0 0.30 0.22 19.89 -27.71 0 0 1.70 -5.87 -7.43 -2.29 -0.46 1.83 -53.59 63.52 69.96 -5.29 0 0 6.71 2.67 -3.60 -3.01 0 0 -12.48 -0 0 -9.37 0.29 2.59 11.14 -2.26 -1.11 -4.34 0 0 24.35 -0.61 -3.81 -2.16 0 0 2.16 0 0 -9.47 0.83 0.29 21.35 -5.45 -1.36 -4.77 0 0 24.69 -0.59 -2.61 -2.87 0 0 -3.95 0.07 -0.39 -8.65 1.01 -1.70 29.57 0.66 -2.30 -4.54 0 0 31.59 0.87 2.59 -2.50 0 0 -6.76 0 0 -7.69 0.66 -3.90 28.89 -11.78 -5.21 -3.21 0 0 47.78 0.95 -0.64 -1.92 0 0 -4.41 0 0 8.73 -0 0 2.65 -12.09 19.42 0 -46.66 0 0.55 11.32 -0.01 0 -40.14 0 0.25 -5.01 14.12 0 -8.88 14.22 0 0 0 -8.73 0 -0 0.97 -9.95 -7.37 0 -46.66 0 -0.19 8.05 0.02 0 -40.14 0 -1.18 -4.34 -5.29 0 -8.88 14.22 0 0 0 
-0 97.33 -0.85 -0.03 6.26 -6.43 0 7.23 0 0.98 -2.72 1.02 0 16.54 0 1.90 -3.58 1.95 0 34.21 0 -0 25.72 0 0 6.29 0 -2.28 -19.16 1.59 4.06 26.61 -1.12 -0.98 -5.87 4.81 14.17 0 0 -83.31 38.14 7.65 26.12 0 0 -0.29 0.23 -19.29 27.71 0 0 3.68 -23.99 12.45 2.29 -0.46 1.83 51.04 66.36 -67.94 5.29 0 0 -6.83 2.66 2.96 3.01 0 0 12.48 -0 0 9.37 0.29 2.59 -13.22 -0.85 -0.85 4.34 0 0 -26.23 -0.61 3.49 2.16 0 0 -2.16 0 0 9.47 0.83 0.29 -17.65 -4.14 -0.22 4.77 0 0 -20.91 -0.36 1.90 2.87 0 0 3.95 0.07 0.39 8.65 1.01 -1.70 -25.61 -0.59 1.37 4.54 0 0 -27.83 0.58 -1.80 2.50 0 0 6.76 0 0 7.69 0.66 -3.90 -20.28 -13.01 2.43 3.21 0 0 -39.05 0.30 1.95 1.92 0 0 4.41 0 0 -4.06 26.61 -1.12 3.08 -6.11 -4.15 -14.17 0 0 77.35 39.54 -7.90 -26.12 0 0 0.30 0.22 19.98 -27.71 0 0 1.69 -5.88 -7.48 -2.29 -0.46 1.83 -53.59 63.52 69.96 -5.29 0 0 6.71 2.67 -3.60 -3.01 0 0 -12.48 -0 0 -9.37 0.29 2.59 11.14 -2.26 -1.11 -4.34 0 0 24.35 -0.61 -3.81 -2.16 0 0 2.16 0 0 -9.47 0.83 0.29 21.35 -5.45 -1.36 -4.77 0 0 24.69 -0.59 -2.61 -2.87 0 0 -3.95 0.07 -0.39 -8.65 1.01 -1.70 29.57 0.66 -2.30 -4.54 0 0 31.59 0.87 2.59 -2.50 0 0 -6.76 0 0 -7.69 0.66 -3.90 28.89 -11.78 -5.21 -3.21 0 0 47.78 0.95 -0.64 -1.92 0 0 -4.41 0 0 8.73 -0 0 2.65 -12.09 19.42 0 -46.66 0 0.55 11.32 -0.01 0 -40.14 0 0.27 -5.01 14.09 0 -8.88 14.22 0 0 -0 -8.73 0 -0 0.97 -9.95 -7.36 0 -46.66 0 -0.19 8.06 0.02 0 -40.14 0 -1.18 -4.34 -5.32 0 -8.88 14.22 0 0 0 
0.01 97.33 -0.84 -0.03 6.24 -6.36 0 7.23 0 0.98 -2.73 1.02 0 16.54 0 1.90 -3.59 1.95 0 34.21 0 0 25.70 0.01 0 6.29 0 -2.22 -19.26 1.62 4.06 26.61 -1.12 -0.98 -5.87 4.81 14.17 0 0 -83.32 38.17 7.67 26.12 0 0 -0.29 0.23 -19.31 27.71 0 0 3.77 -24.04 12.35 2.29 -0.46 1.83 51.04 66.36 -67.94 5.29 0 0 -6.83 2.66 2.96 3.01 0 0 12.48 -0 0 9.37 0.29 2.59 -13.22 -0.85 -0.85 4.34 0 0 -26.23 -0.61 3.49 2.16 0 0 -2.16 0 0 9.47 0.83 0.29 -17.65 -4.14 -0.22 4.77 0 0 -20.91 -0.36 1.90 2.87 0 0 3.95 0.07 0.39 8.65 1.01 -1.70 -25.61 -0.59 1.37 4.54 0 0 -27.83 0.58 -1.80 2.50 0 0 6.76 0 0 7.69 0.66 -3.90 -20.28 -13.01 2.43 3.21 0 0 -39.05 0.30 1.95 1.92 0 0 4.41 0 0 -4.06 26.61 -1.12 3.07 -6.11 -4.15 -14.17 0 0 77.36 39.54 -8.04 -26.12 0 0 0.30 0.22 20.15 -27.71 0 0 1.67 -5.93 -7.56 -2.29 -0.46 1.83 -53.59 63.52 69.96 -5.29 0 0 6.71 2.67 -3.60 -3.01 0 0 -12.48 -0 0 -9.37 0.29 2.59 11.14 -2.26 -1.11 -4.34 0 0 24.35 -0.61 -3.81 -2.16 0 0 2.16 0 0 -9.47 0.83 0.29 21.35 -5.45 -1.36 -4.77 0 0 24.69 -0.59 -2.61 -2.87 0 0 -3.95 0.07 -0.39 -8.65 1.01 -1.70 29.57 0.66 -2.30 -4.54 0 0 31.59 0.87 2.59 -2.50 0 0 -6.76 0 0 -7.69 0.66 -3.90 28.89 -11.78 -5.21 -3.21 0 0 47.78 0.95 -0.64 -1.92 0 0 -4.41 0 0 8.73 -0 0 2.63 -12.06 19.42 0 -46.66 0 0.55 11.30 -0.01 0 -40.14 0 0.30 -5.00 14.02 0 -8.88 14.22 0 0 -0 -8.73 0 -0 0.95 -9.95 -7.36 0 -46.66 0 -0.20 8.13 0.02 0 -40.14 0 -1.17 -4.38 -5.37 0 -8.88 14.22 0 0 0 
0.03 97.33 -0.84 -0.05 6.20 -6.28 0 7.23 0 0.97 -2.74 1.02 0 16.54 0 1.89 -3.60 1.96 0 34.21 0 0.03 25.69 0.01 0 6.29 0 -2.12 -19.38 1.65 4.06 26.61 -1.12 -0.98 -5.87 4.81 14.17 0 0 -83.29 38.22 7.75 26.12 0 0 -0.29 0.23 -19.48 27.71 0 0 3.82 -24.02 12.35 2.29 -0.46 1.83 51.04 66.36 -67.94 5.29 0 0 -6.83 2.66 2.96 3.01 0 0 12.48 -0 0 9.37 0.29 2.59 -13.22 -0.85 -0.85 4.34 0 0 -26.23 -0.61 3.49 2.16 0 0 -2.16 0 0 9.47 0.83 0.29 -17.65 -4.14 -0.22 4.77 0 0 -20.91 -0.36 1.90 2.87 0 0 3.95 0.07 0.39 8.65 1.01 -1.70 -25.61 -0.59 1.37 4.54 0 0 -27.83 0.58 -1.80 2.50 0 0 6.76 0 0 7.69 0.66 -3.90 -20.28 -13.01 2.43 3.21 0 0 -39.05 0.30 1.95 1.92 0 0 4.41 0 0 -4.06 26.61 -1.12 3.07 -6.11 -4.15 -14.17 0 0 77.40 39.53 -8.14 -26.12 0 0 0.30 0.22 20.18 -27.71 0 0 1.68 -5.97 -7.56 -2.29 -0.46 1.83 -53.59 63.52 69.96 -5.29 0 0 6.71 2.67 -3.60 -3.01 0 0 -12.48 -0 0 -9.37 0.29 2.59 11.14 -2.26 -1.11 -4.34 0 0 24.35 -0.61 -3.81 -2.16 0 0 2.16 0 0 -9.47 0.83 0.29 21.35 -5.45 -1.36 -4.77 0 0 24.69 -0.59 -2.61 -2.87 0 0 -3.95 0.07 -0.39 -8.65 1.01 -1.70 29.57 0.66 -2.30 -4.54 0 0 31.59 0.87 2.59 -2.50 0 0 -6.76 0 0 -7.69 0.66 -3.90 28.89 -11.78 -5.21 -3.21 0 0 47.78 0.95 -0.64 -1.92 0 0 -4.41 0 0 8.73 -0 0 2.61 -12.02 19.43 0 -46.66 0 0.54 11.28 -0.01 0 -40.14 0 0.31 -4.99 13.93 0 -8.88 14.22 0 0 0 -8.73 0 -0 0.94 -9.92 -7.36 0 -46.66 0 -0.20 8.18 0.02 0 -40.14 0 -1.17 -4.42 -5.45 0 -8.88 14.22 0 0 0 
